<?xml version="1.0" encoding="iso-8859-1"?>
<!-- Generator: Adobe Illustrator 16.0.0, SVG Export Plug-In . SVG Version: 6.00 Build 0)  -->
<!DOCTYPE svg PUBLIC "-//W3C//DTD SVG 1.1//EN" "http://www.w3.org/Graphics/SVG/1.1/DTD/svg11.dtd">
<svg version="1.1" id="Capa_1" xmlns="http://www.w3.org/2000/svg" xmlns:xlink="http://www.w3.org/1999/xlink" x="0px" y="0px"
	 width="464.327px" height="464.327px" viewBox="0 0 464.327 464.327" style="enable-background:new 0 0 464.327 464.327;"
	 xml:space="preserve">
<g>
	<g id="Layer_8_43_">
		<path d="M450.319,110.711H14.008C6.271,110.711,0,116.982,0,124.72v214.884c0,7.737,6.271,14.011,14.008,14.011h436.312
			c7.737,0,14.008-6.273,14.008-14.011V124.72C464.327,116.988,458.057,110.711,450.319,110.711z M436.309,281.427
			c-3.885-1.62-8.14-2.517-12.607-2.517c-18.106,0-32.782,14.675-32.782,32.777c0,4.99,1.139,9.685,3.138,13.909H69.437
			c1.989-4.225,3.134-8.931,3.134-13.909c0-18.103-14.677-32.777-32.781-32.777c-4.152,0-8.115,0.809-11.772,2.212V181.068
			c3.657,1.406,7.613,2.213,11.772,2.213c18.104,0,32.781-14.676,32.781-32.78c0-4.153-0.808-8.115-2.213-11.773h322.775
			c-1.409,3.658-2.222,7.614-2.222,11.773c0,18.104,14.674,32.78,32.786,32.78c4.473,0,8.728-0.903,12.607-2.522L436.309,281.427
			L436.309,281.427z M164.693,183.465h30.802c-15.38,11.403-25.39,29.631-25.39,50.246c0,18.835,8.367,35.688,21.541,47.164h-26.952
			v30.817h134.944v-30.817h-25.928c13.177-11.471,21.526-28.329,21.526-47.164c0-20.615-10.012-38.843-25.379-50.246h29.78v-30.818
			H164.693V183.465z M210.359,215.27c0-12.799,10.372-23.171,23.168-23.171c12.798,0,23.176,10.377,23.176,23.171
			c0,8.148-4.216,15.297-10.585,19.432c12.093,4.459,20.728,16.054,20.728,29.696H203.49c0-12.897,7.705-23.957,18.749-28.903
			C215.151,231.525,210.359,223.961,210.359,215.27z"/>
	</g>
</g>
<g>
</g>
<g>
</g>
<g>
</g>
<g>
</g>
<g>
</g>
<g>
</g>
<g>
</g>
<g>
</g>
<g>
</g>
<g>
</g>
<g>
</g>
<g>
</g>
<g>
</g>
<g>
</g>
<g>
</g>
</svg>
